<svg width="16" height="16" viewBox="0 0 16 16" fill="none" xmlns="http://www.w3.org/2000/svg">
<path d="M9.88487 5.17136L6.11421 8.94269C6.05053 9.00419 5.99975 9.07775 5.96481 9.15909C5.92987 9.24043 5.91148 9.32791 5.91071 9.41643C5.90994 9.50495 5.92681 9.59273 5.96033 9.67466C5.99385 9.75659 6.04335 9.83103 6.10594 9.89362C6.16854 9.95622 6.24297 10.0057 6.3249 10.0392C6.40683 10.0728 6.49462 10.0896 6.58314 10.0889C6.67166 10.0881 6.75914 10.0697 6.84048 10.0348C6.92181 9.99982 6.99538 9.94903 7.05687 9.88536L10.8282 6.11469C11.2033 5.73959 11.414 5.23084 11.414 4.70036C11.414 4.16988 11.2033 3.66113 10.8282 3.28603C10.4531 2.91092 9.94435 2.70019 9.41387 2.70019C8.8834 2.70019 8.37464 2.91092 7.99954 3.28603L4.22821 7.05736C3.91226 7.36545 3.66063 7.7332 3.48791 8.13929C3.3152 8.54538 3.22484 8.98173 3.22207 9.42301C3.21931 9.8643 3.30419 10.3017 3.4718 10.71C3.63942 11.1182 3.88642 11.4891 4.19848 11.8011C4.51055 12.1131 4.88146 12.3601 5.28971 12.5276C5.69796 12.6952 6.13541 12.78 6.5767 12.7772C7.01798 12.7743 7.45431 12.6839 7.86038 12.5111C8.26645 12.3384 8.63417 12.0867 8.94221 11.7707L12.7135 8.00003L13.6562 8.94269L9.88487 12.714C9.45151 13.1474 8.93704 13.4912 8.37082 13.7257C7.80461 13.9602 7.19774 14.0809 6.58487 14.0809C5.97201 14.0809 5.36514 13.9602 4.79893 13.7257C4.23271 13.4912 3.71824 13.1474 3.28487 12.714C2.85151 12.2807 2.50775 11.7662 2.27322 11.2C2.03868 10.6338 1.91797 10.0269 1.91797 9.41403C1.91797 8.80116 2.03868 8.19429 2.27322 7.62808C2.50775 7.06186 2.85151 6.54739 3.28487 6.11403L7.05687 2.34336C7.68555 1.73617 8.52755 1.40019 9.40154 1.40778C10.2755 1.41537 11.1116 1.76594 11.7296 2.38396C12.3476 3.00199 12.6982 3.83803 12.7058 4.71202C12.7134 5.58601 12.3774 6.42802 11.7702 7.05669L7.99954 10.8294C7.81376 11.0151 7.59322 11.1624 7.35051 11.2629C7.1078 11.3634 6.84767 11.4151 6.58497 11.4151C6.32227 11.4151 6.06216 11.3633 5.81947 11.2627C5.57678 11.1622 5.35627 11.0148 5.17054 10.829C4.98481 10.6433 4.83748 10.4227 4.73698 10.18C4.63648 9.93729 4.58477 9.67716 4.5848 9.41446C4.58483 9.15176 4.63661 8.89164 4.73716 8.64895C4.83772 8.40627 4.9851 8.18576 5.17087 8.00003L8.94221 4.22869L9.88487 5.17136Z" fill="white"/>
</svg>
