<svg width="16" height="16" viewBox="0 0 16 16" fill="none" xmlns="http://www.w3.org/2000/svg">
<path d="M4.86035 13.8826L1.33302 14.6666L2.11702 11.1393C1.6007 10.1736 1.33137 9.09508 1.33302 7.99998C1.33302 4.31798 4.31768 1.33331 7.99968 1.33331C11.6817 1.33331 14.6663 4.31798 14.6663 7.99998C14.6663 11.682 11.6817 14.6666 7.99968 14.6666C6.90458 14.6683 5.82609 14.399 4.86035 13.8826ZM5.05368 12.474L5.48902 12.7073C6.26138 13.1201 7.12394 13.3351 7.99968 13.3333C9.05452 13.3333 10.0857 13.0205 10.9627 12.4345C11.8398 11.8484 12.5234 11.0155 12.927 10.041C13.3307 9.06642 13.4363 7.99406 13.2305 6.9595C13.0247 5.92493 12.5168 4.97462 11.7709 4.22874C11.025 3.48286 10.0747 2.97491 9.04016 2.76912C8.0056 2.56334 6.93324 2.66895 5.9587 3.07262C4.98416 3.47629 4.15121 4.15988 3.56518 5.03694C2.97914 5.914 2.66635 6.94515 2.66635 7.99998C2.66635 8.88931 2.88302 9.74531 3.29302 10.5106L3.52568 10.946L3.08902 12.9106L5.05368 12.474Z" fill="white"/>
</svg>
