<svg width="16" height="16" viewBox="0 0 16 16" fill="none" xmlns="http://www.w3.org/2000/svg">
<path d="M6.66667 1.33331C7.03467 1.33331 7.33333 1.63198 7.33333 1.99998V4.66665C7.33333 5.03465 7.03467 5.33331 6.66667 5.33331H5.33333V6.66665H8.66667V5.99998C8.66667 5.63198 8.96533 5.33331 9.33333 5.33331H13.3333C13.7013 5.33331 14 5.63198 14 5.99998V8.66665C14 9.03465 13.7013 9.33331 13.3333 9.33331H9.33333C8.96533 9.33331 8.66667 9.03465 8.66667 8.66665V7.99998H5.33333V12H8.66667V11.3333C8.66667 10.9653 8.96533 10.6666 9.33333 10.6666H13.3333C13.7013 10.6666 14 10.9653 14 11.3333V14C14 14.368 13.7013 14.6666 13.3333 14.6666H9.33333C8.96533 14.6666 8.66667 14.368 8.66667 14V13.3333H4.66667C4.29867 13.3333 4 13.0346 4 12.6666V5.33331H2.66667C2.29867 5.33331 2 5.03465 2 4.66665V1.99998C2 1.63198 2.29867 1.33331 2.66667 1.33331H6.66667ZM12.6667 12H10V13.3333H12.6667V12ZM12.6667 6.66665H10V7.99998H12.6667V6.66665ZM6 2.66665H3.33333V3.99998H6V2.66665Z" fill="white"/>
</svg>
